<svg width="50" height="45" fill="none" xmlns="http://www.w3.org/2000/svg"><path d="M46.287 37.138l-26.504-9.6V8.755l26.713-7.721C47.748.825 49 1.66 49 3.12v32.14c0 1.252-1.252 2.295-2.713 1.878z" stroke="#FFD800" stroke-width="2" stroke-miterlimit="10" stroke-linecap="round" stroke-linejoin="round"/><path d="M46.287 37.138l-26.504-9.6V8.755l26.713-7.721C47.748.825 49 1.66 49 3.12v32.14c0 1.252-1.252 2.295-2.713 1.878z" stroke="url(#paint0_linear)" stroke-width="2" stroke-miterlimit="10" stroke-linecap="round" stroke-linejoin="round"/><path d="M13.104 43.608L8.93 42.564c-.834-.209-1.67-1.043-1.67-2.087V27.538h8.349v13.983c0 1.252-1.252 2.295-2.505 2.087z" stroke="#FFD800" stroke-width="2" stroke-miterlimit="10" stroke-linecap="round" stroke-linejoin="round"/><path d="M13.104 43.608L8.93 42.564c-.834-.209-1.67-1.043-1.67-2.087V27.538h8.349v13.983c0 1.252-1.252 2.295-2.505 2.087z" stroke="url(#paint1_linear)" stroke-width="2" stroke-miterlimit="10" stroke-linecap="round" stroke-linejoin="round"/><path d="M7.26 27.538h12.523V8.756H7.26c-3.547 0-6.26 2.713-6.26 6.26v6.262c0 3.339 2.713 6.26 6.26 6.26z" stroke="#FFD800" stroke-width="2" stroke-miterlimit="10" stroke-linecap="round" stroke-linejoin="round"/><path d="M7.26 27.538h12.523V8.756H7.26c-3.547 0-6.26 2.713-6.26 6.26v6.262c0 3.339 2.713 6.26 6.26 6.26z" stroke="url(#paint2_linear)" stroke-width="2" stroke-miterlimit="10" stroke-linecap="round" stroke-linejoin="round"/><defs><linearGradient id="paint0_linear" x1="34.391" y1="1.002" x2="34.391" y2="37.231" gradientUnits="userSpaceOnUse"><stop stop-color="#fff" stop-opacity=".5"/><stop offset="1" stop-color="#fff" stop-opacity="0"/></linearGradient><linearGradient id="paint1_linear" x1="11.435" y1="27.538" x2="11.435" y2="43.634" gradientUnits="userSpaceOnUse"><stop stop-color="#fff" stop-opacity=".5"/><stop offset="1" stop-color="#fff" stop-opacity="0"/></linearGradient><linearGradient id="paint2_linear" x1="10.391" y1="8.756" x2="10.391" y2="27.538" gradientUnits="userSpaceOnUse"><stop stop-color="#fff" stop-opacity=".5"/><stop offset="1" stop-color="#fff" stop-opacity="0"/></linearGradient></defs></svg>