<svg width="1920" height="1219" viewBox="0 0 1920 1219" fill="none" xmlns="http://www.w3.org/2000/svg">
<path d="M1920 1218.7H0V25.8C57.8 11 125.4 1 210.7 1C585.4 1 670 138.7 960 138.7C1250 138.7 1334.6 1 1709.3 1C1794.7 1 1862.2 11 1920 25.8V1218.7Z" fill="#041B42"/>
<path d="M960 134.104C670 134.104 585.4 0 210.7 0C125.4 0 57.8 9.73888 0 24.1524V26.0028C57.8 11.3945 125.4 1.46083 210.7 1.46083C585.4 1.46083 670 138 960 138C1250 138 1334.6 1.46083 1709.3 1.46083C1794.7 1.46083 1862.2 11.3945 1920 26.0028V24.1524C1862.2 9.73888 1794.6 0 1709.3 0C1334.6 0 1250 134.104 960 134.104Z" fill="url(#paint0_linear)"/>
<defs>
<linearGradient id="paint0_linear" x1="1920" y1="69.0039" x2="0" y2="69.0039" gradientUnits="userSpaceOnUse">
<stop stop-color="#085FF0"/>
<stop offset="0.5005" stop-color="#FFD800"/>
<stop offset="1" stop-color="#085FF0"/>
</linearGradient>
</defs>
</svg>
