<svg width="34" height="34" viewBox="0 0 34 34" fill="none" xmlns="http://www.w3.org/2000/svg">
<path d="M1.06206 11.7363C0.872952 10.0529 1.11778 8.34846 1.77249 6.79044C2.4272 5.23241 3.46925 3.87443 4.79624 2.84996L5.04697 2.62753C5.50876 2.28538 6.07386 2.11865 6.644 2.15631C7.21415 2.19398 7.75329 2.43366 8.16768 2.83368L11.027 5.74155C11.4733 6.19884 11.7237 6.81701 11.7237 7.46131C11.7237 8.10561 11.4733 8.72378 11.027 9.18107L9.66135 10.9876C9.26584 11.5101 9.01437 12.1303 8.9328 12.7844C8.85122 13.4385 8.9425 14.1029 9.19724 14.7093C10.5255 17.8884 13.6089 23.6987 18.7994 24.8705C19.332 24.9862 19.8829 24.9821 20.4137 24.8584C20.9445 24.7347 21.4423 24.4944 21.8721 24.1544L24.0753 22.4346C24.5249 21.9808 25.1328 21.7261 25.7663 21.7261C26.3999 21.7261 27.0077 21.9808 27.4574 22.4346L30.3167 25.3425C30.7157 25.7673 30.953 26.3225 30.9863 26.909C31.0195 27.4954 30.8464 28.0748 30.4981 28.5433L30.3167 28.782C29.0114 30.4759 27.2466 31.7436 25.2403 32.4282C23.2341 33.1128 21.0746 33.1843 19.0288 32.6339C15.9294 31.8092 12.2806 29.905 8.39706 25.9555C3.24922 20.7203 1.52617 15.561 1.06206 11.7363Z" stroke="#041B42" stroke-width="2" stroke-miterlimit="10"/>
<path d="M17.7166 10.9985C19.1635 10.9999 20.5507 11.5851 21.5738 12.6256C22.597 13.6661 23.1724 15.0769 23.1738 16.5484" stroke="#041B42" stroke-width="2" stroke-linecap="round" stroke-linejoin="round"/>
<path d="M17.7166 5.76867C19.1085 5.76796 20.4869 6.04633 21.7729 6.58788C23.059 7.12942 24.2274 7.92351 25.2114 8.92471C26.1954 9.92591 26.9756 11.1146 27.5075 12.4227C28.0393 13.7309 28.3124 15.1328 28.311 16.5484" stroke="#041B42" stroke-width="2" stroke-linecap="round" stroke-linejoin="round"/>
<path d="M17.7166 1C21.7705 1.00144 25.6579 2.6402 28.5239 5.55594C31.39 8.47167 33 12.4256 33 16.5484" stroke="#041B42" stroke-width="2" stroke-linecap="round" stroke-linejoin="round"/>
</svg>
