<svg width="48" height="44" viewBox="0 0 48 44" fill="none" xmlns="http://www.w3.org/2000/svg">
<path d="M47 13C47 6.4 41.6 1 35 1C30 1 25.8 4 24 8.2C22.2 4 18 1 13 1C6.4 1 1 6.4 1 13C1 26.4 21 37 24 43C27 37 46.8 26.4 47 13Z" stroke="#FFD800" stroke-width="2" stroke-miterlimit="10" stroke-linecap="round" stroke-linejoin="round"/>
<path d="M47 13C47 6.4 41.6 1 35 1C30 1 25.8 4 24 8.2C22.2 4 18 1 13 1C6.4 1 1 6.4 1 13C1 26.4 21 37 24 43C27 37 46.8 26.4 47 13Z" stroke="url(#paint0_linear)" stroke-width="2" stroke-miterlimit="10" stroke-linecap="round" stroke-linejoin="round"/>
<defs>
<linearGradient id="paint0_linear" x1="24" y1="1" x2="24" y2="43" gradientUnits="userSpaceOnUse">
<stop stop-color="white" stop-opacity="0.5"/>
<stop offset="1" stop-color="white" stop-opacity="0"/>
</linearGradient>
</defs>
</svg>
