<svg width="48" height="50" viewBox="0 0 48 50" fill="none" xmlns="http://www.w3.org/2000/svg">
<path d="M15.7525 23.71C22.918 22.024 29.8727 13.3833 29.8727 2.84579C29.8727 0.316789 34.9307 -0.104711 36.406 4.74254C37.8812 10.222 35.563 14.8585 33.6662 19.495H42.9392" stroke="#FFD800" stroke-width="2" stroke-miterlimit="10" stroke-linecap="round" stroke-linejoin="round"/>
<path d="M15.7525 23.71C22.918 22.024 29.8727 13.3833 29.8727 2.84579C29.8727 0.316789 34.9307 -0.104711 36.406 4.74254C37.8812 10.222 35.563 14.8585 33.6662 19.495H42.9392" stroke="url(#paint0_linear)" stroke-width="2" stroke-miterlimit="10" stroke-linecap="round" stroke-linejoin="round"/>
<path d="M42.7285 19.4951C44.836 19.4951 46.522 21.1811 46.522 23.2886C46.522 25.3961 44.836 27.0821 42.7285 27.0821H41.8855" stroke="#FFD800" stroke-width="2" stroke-miterlimit="10" stroke-linecap="round" stroke-linejoin="round"/>
<path d="M42.7285 19.4951C44.836 19.4951 46.522 21.1811 46.522 23.2886C46.522 25.3961 44.836 27.0821 42.7285 27.0821H41.8855" stroke="url(#paint1_linear)" stroke-width="2" stroke-miterlimit="10" stroke-linecap="round" stroke-linejoin="round"/>
<path d="M41.8855 26.8711C43.993 26.8711 45.679 28.5571 45.679 30.6646C45.679 32.7721 43.993 34.4581 41.8855 34.4581H41.0425" stroke="#FFD800" stroke-width="2" stroke-miterlimit="10" stroke-linecap="round" stroke-linejoin="round"/>
<path d="M41.8855 26.8711C43.993 26.8711 45.679 28.5571 45.679 30.6646C45.679 32.7721 43.993 34.4581 41.8855 34.4581H41.0425" stroke="url(#paint2_linear)" stroke-width="2" stroke-miterlimit="10" stroke-linecap="round" stroke-linejoin="round"/>
<path d="M39.9887 34.2471C42.0962 34.2471 43.7822 35.9331 43.7822 38.0406C43.7822 40.1481 42.0962 41.8341 39.9887 41.8341H39.1457" stroke="#FFD800" stroke-width="2" stroke-miterlimit="10" stroke-linecap="round" stroke-linejoin="round"/>
<path d="M39.9887 34.2471C42.0962 34.2471 43.7822 35.9331 43.7822 38.0406C43.7822 40.1481 42.0962 41.8341 39.9887 41.8341H39.1457" stroke="url(#paint3_linear)" stroke-width="2" stroke-miterlimit="10" stroke-linecap="round" stroke-linejoin="round"/>
<path d="M41.8855 26.8711C43.993 26.8711 45.679 28.5571 45.679 30.6646C45.679 32.7721 43.993 34.4581 41.8855 34.4581H39.9887" stroke="#FFD800" stroke-width="2" stroke-miterlimit="10" stroke-linecap="round" stroke-linejoin="round"/>
<path d="M41.8855 26.8711C43.993 26.8711 45.679 28.5571 45.679 30.6646C45.679 32.7721 43.993 34.4581 41.8855 34.4581H39.9887" stroke="url(#paint4_linear)" stroke-width="2" stroke-miterlimit="10" stroke-linecap="round" stroke-linejoin="round"/>
<path d="M39.1457 48.1572H29.0297H26.29C22.4965 48.1572 15.7525 44.7852 15.7525 44.7852" stroke="#FFD800" stroke-width="2" stroke-miterlimit="10" stroke-linecap="round" stroke-linejoin="round"/>
<path d="M39.1457 48.1572H29.0297H26.29C22.4965 48.1572 15.7525 44.7852 15.7525 44.7852" stroke="url(#paint5_linear)" stroke-width="2" stroke-miterlimit="10" stroke-linecap="round" stroke-linejoin="round"/>
<path d="M38.3028 41.624H38.7243C40.4103 41.624 41.8855 43.0993 41.8855 44.7853C41.8855 46.4713 40.4103 47.9465 38.7243 47.9465H37.249" stroke="#FFD800" stroke-width="2" stroke-miterlimit="10" stroke-linecap="round" stroke-linejoin="round"/>
<path d="M38.3028 41.624H38.7243C40.4103 41.624 41.8855 43.0993 41.8855 44.7853C41.8855 46.4713 40.4103 47.9465 38.7243 47.9465H37.249" stroke="url(#paint6_linear)" stroke-width="2" stroke-miterlimit="10" stroke-linecap="round" stroke-linejoin="round"/>
<path d="M11.3267 45.2065C11.7923 45.2065 12.1697 44.8291 12.1697 44.3635C12.1697 43.8979 11.7923 43.5205 11.3267 43.5205C10.8611 43.5205 10.4837 43.8979 10.4837 44.3635C10.4837 44.8291 10.8611 45.2065 11.3267 45.2065Z" stroke="#FFD800" stroke-width="2" stroke-miterlimit="10" stroke-linecap="round" stroke-linejoin="round"/>
<path d="M11.3267 45.2065C11.7923 45.2065 12.1697 44.8291 12.1697 44.3635C12.1697 43.8979 11.7923 43.5205 11.3267 43.5205C10.8611 43.5205 10.4837 43.8979 10.4837 44.3635C10.4837 44.8291 10.8611 45.2065 11.3267 45.2065Z" stroke="url(#paint7_linear)" stroke-width="2" stroke-miterlimit="10" stroke-linecap="round" stroke-linejoin="round"/>
<path d="M13.645 49.0001H3.1075C1.843 49.0001 1 48.1571 1 46.8926V21.6026C1 20.3381 1.843 19.4951 3.1075 19.4951H13.645C14.9095 19.4951 15.7525 20.3381 15.7525 21.6026V46.8926C15.7525 47.9463 14.9095 49.0001 13.645 49.0001Z" stroke="#FFD800" stroke-width="2" stroke-miterlimit="10" stroke-linecap="round" stroke-linejoin="round"/>
<path d="M13.645 49.0001H3.1075C1.843 49.0001 1 48.1571 1 46.8926V21.6026C1 20.3381 1.843 19.4951 3.1075 19.4951H13.645C14.9095 19.4951 15.7525 20.3381 15.7525 21.6026V46.8926C15.7525 47.9463 14.9095 49.0001 13.645 49.0001Z" stroke="url(#paint8_linear)" stroke-width="2" stroke-miterlimit="10" stroke-linecap="round" stroke-linejoin="round"/>
<defs>
<linearGradient id="paint0_linear" x1="29.3459" y1="1" x2="29.3459" y2="23.71" gradientUnits="userSpaceOnUse">
<stop stop-color="white" stop-opacity="0.5"/>
<stop offset="1" stop-color="white" stop-opacity="0"/>
</linearGradient>
<linearGradient id="paint1_linear" x1="44.2037" y1="19.4951" x2="44.2037" y2="27.0821" gradientUnits="userSpaceOnUse">
<stop stop-color="white" stop-opacity="0.5"/>
<stop offset="1" stop-color="white" stop-opacity="0"/>
</linearGradient>
<linearGradient id="paint2_linear" x1="43.3607" y1="26.8711" x2="43.3607" y2="34.4581" gradientUnits="userSpaceOnUse">
<stop stop-color="white" stop-opacity="0.5"/>
<stop offset="1" stop-color="white" stop-opacity="0"/>
</linearGradient>
<linearGradient id="paint3_linear" x1="41.4639" y1="34.2471" x2="41.4639" y2="41.8341" gradientUnits="userSpaceOnUse">
<stop stop-color="white" stop-opacity="0.5"/>
<stop offset="1" stop-color="white" stop-opacity="0"/>
</linearGradient>
<linearGradient id="paint4_linear" x1="42.8338" y1="26.8711" x2="42.8338" y2="34.4581" gradientUnits="userSpaceOnUse">
<stop stop-color="white" stop-opacity="0.5"/>
<stop offset="1" stop-color="white" stop-opacity="0"/>
</linearGradient>
<linearGradient id="paint5_linear" x1="27.4491" y1="44.7852" x2="27.4491" y2="48.1572" gradientUnits="userSpaceOnUse">
<stop stop-color="white" stop-opacity="0.5"/>
<stop offset="1" stop-color="white" stop-opacity="0"/>
</linearGradient>
<linearGradient id="paint6_linear" x1="39.5673" y1="41.624" x2="39.5673" y2="47.9465" gradientUnits="userSpaceOnUse">
<stop stop-color="white" stop-opacity="0.5"/>
<stop offset="1" stop-color="white" stop-opacity="0"/>
</linearGradient>
<linearGradient id="paint7_linear" x1="11.3267" y1="43.5205" x2="11.3267" y2="45.2065" gradientUnits="userSpaceOnUse">
<stop stop-color="white" stop-opacity="0.5"/>
<stop offset="1" stop-color="white" stop-opacity="0"/>
</linearGradient>
<linearGradient id="paint8_linear" x1="8.37624" y1="19.4951" x2="8.37624" y2="49.0001" gradientUnits="userSpaceOnUse">
<stop stop-color="white" stop-opacity="0.5"/>
<stop offset="1" stop-color="white" stop-opacity="0"/>
</linearGradient>
</defs>
</svg>
