<svg width="52" height="42" viewBox="0 0 52 42" fill="none" xmlns="http://www.w3.org/2000/svg">
<path d="M39.6689 11.3062C39.6689 14.8811 36.9351 17.8252 33.3602 17.8252C29.7853 17.8252 27.0515 14.8811 27.0515 11.3062V7.52095C27.0515 3.94601 29.7853 1.00195 33.3602 1.00195C36.9351 1.00195 39.6689 3.94601 39.6689 7.52095V11.3062Z" stroke="#FFD800" stroke-width="2" stroke-miterlimit="10" stroke-linecap="round" stroke-linejoin="round"/>
<path d="M39.6689 11.3062C39.6689 14.8811 36.9351 17.8252 33.3602 17.8252C29.7853 17.8252 27.0515 14.8811 27.0515 11.3062V7.52095C27.0515 3.94601 29.7853 1.00195 33.3602 1.00195C36.9351 1.00195 39.6689 3.94601 39.6689 7.52095V11.3062Z" stroke="url(#paint0_linear)" stroke-width="2" stroke-miterlimit="10" stroke-linecap="round" stroke-linejoin="round"/>
<path d="M16.537 12.5682C19.4405 12.5682 21.7943 10.2145 21.7943 7.31096C21.7943 4.40746 19.4405 2.05371 16.537 2.05371C13.6335 2.05371 11.2798 4.40746 11.2798 7.31096C11.2798 10.2145 13.6335 12.5682 16.537 12.5682Z" stroke="#FFD800" stroke-width="2" stroke-miterlimit="10" stroke-linecap="round" stroke-linejoin="round"/>
<path d="M16.537 12.5682C19.4405 12.5682 21.7943 10.2145 21.7943 7.31096C21.7943 4.40746 19.4405 2.05371 16.537 2.05371C13.6335 2.05371 11.2798 4.40746 11.2798 7.31096C11.2798 10.2145 13.6335 12.5682 16.537 12.5682Z" stroke="url(#paint1_linear)" stroke-width="2" stroke-miterlimit="10" stroke-linecap="round" stroke-linejoin="round"/>
<path d="M21.7942 24.3444C19.6913 22.8724 17.1678 22.0312 14.434 22.0312C8.33563 22.0312 3.07838 26.4473 2.02693 32.3355C1.81664 33.5972 2.86809 34.6487 4.12983 34.6487H14.434" stroke="#FFD800" stroke-width="2" stroke-miterlimit="10" stroke-linecap="round" stroke-linejoin="round"/>
<path d="M21.7942 24.3444C19.6913 22.8724 17.1678 22.0312 14.434 22.0312C8.33563 22.0312 3.07838 26.4473 2.02693 32.3355C1.81664 33.5972 2.86809 34.6487 4.12983 34.6487H14.434" stroke="url(#paint2_linear)" stroke-width="2" stroke-miterlimit="10" stroke-linecap="round" stroke-linejoin="round"/>
<path d="M33.3602 24.1338C24.9486 24.1338 17.7987 30.4425 16.7473 38.6438C16.537 39.9055 17.5884 40.957 18.8502 40.957H47.8702C49.1319 40.957 50.1834 39.9055 49.9731 38.6438C48.9216 30.4425 41.7718 24.1338 33.3602 24.1338Z" stroke="#FFD800" stroke-width="2" stroke-miterlimit="10" stroke-linecap="round" stroke-linejoin="round"/>
<path d="M33.3602 24.1338C24.9486 24.1338 17.7987 30.4425 16.7473 38.6438C16.537 39.9055 17.5884 40.957 18.8502 40.957H47.8702C49.1319 40.957 50.1834 39.9055 49.9731 38.6438C48.9216 30.4425 41.7718 24.1338 33.3602 24.1338Z" stroke="url(#paint3_linear)" stroke-width="2" stroke-miterlimit="10" stroke-linecap="round" stroke-linejoin="round"/>
<defs>
<linearGradient id="paint0_linear" x1="33.3602" y1="1.00195" x2="33.3602" y2="17.8252" gradientUnits="userSpaceOnUse">
<stop stop-color="white" stop-opacity="0.5"/>
<stop offset="1" stop-color="white" stop-opacity="0"/>
</linearGradient>
<linearGradient id="paint1_linear" x1="16.537" y1="2.05371" x2="16.537" y2="12.5682" gradientUnits="userSpaceOnUse">
<stop stop-color="white" stop-opacity="0.5"/>
<stop offset="1" stop-color="white" stop-opacity="0"/>
</linearGradient>
<linearGradient id="paint2_linear" x1="11.8971" y1="22.0312" x2="11.8971" y2="34.6487" gradientUnits="userSpaceOnUse">
<stop stop-color="white" stop-opacity="0.5"/>
<stop offset="1" stop-color="white" stop-opacity="0"/>
</linearGradient>
<linearGradient id="paint3_linear" x1="33.3602" y1="24.1338" x2="33.3602" y2="40.957" gradientUnits="userSpaceOnUse">
<stop stop-color="white" stop-opacity="0.5"/>
<stop offset="1" stop-color="white" stop-opacity="0"/>
</linearGradient>
</defs>
</svg>
