<svg width="34" height="34" fill="none" xmlns="http://www.w3.org/2000/svg"><path d="M1.062 11.736a9.915 9.915 0 01.71-4.946 9.743 9.743 0 013.024-3.94l.251-.222a2.414 2.414 0 013.12.206l2.86 2.908c.446.457.697 1.075.697 1.72 0 .644-.25 1.262-.697 1.72l-1.366 1.806a3.768 3.768 0 00-.464 3.722c1.329 3.178 4.412 8.989 9.602 10.16a3.673 3.673 0 003.073-.716l2.203-1.72a2.38 2.38 0 011.691-.708 2.38 2.38 0 011.691.709l2.86 2.908a2.504 2.504 0 01.181 3.2l-.181.239a10.828 10.828 0 01-5.077 3.646 10.651 10.651 0 01-6.211.206c-3.1-.825-6.748-2.729-10.632-6.678-5.148-5.236-6.87-10.395-7.335-14.22z" stroke="#041B42" stroke-width="2" stroke-miterlimit="10"/><path d="M17.717 10.998a5.416 5.416 0 013.857 1.628 5.603 5.603 0 011.6 3.922M17.717 5.769a10.42 10.42 0 014.056.819 10.579 10.579 0 013.438 2.337 10.784 10.784 0 012.297 3.498 10.93 10.93 0 01.803 4.125M17.717 1a15.16 15.16 0 0110.807 4.556A15.683 15.683 0 0133 16.548" stroke="#041B42" stroke-width="2" stroke-linecap="round" stroke-linejoin="round"/></svg>