<svg width="48" height="44" fill="none" xmlns="http://www.w3.org/2000/svg"><path d="M47 13c0-6.6-5.4-12-12-12-5 0-9.2 3-11 7.2C22.2 4 18 1 13 1 6.4 1 1 6.4 1 13c0 13.4 20 24 23 30 3-6 22.8-16.6 23-30z" stroke="#FFD800" stroke-width="2" stroke-miterlimit="10" stroke-linecap="round" stroke-linejoin="round"/><path d="M47 13c0-6.6-5.4-12-12-12-5 0-9.2 3-11 7.2C22.2 4 18 1 13 1 6.4 1 1 6.4 1 13c0 13.4 20 24 23 30 3-6 22.8-16.6 23-30z" stroke="url(#paint0_linear)" stroke-width="2" stroke-miterlimit="10" stroke-linecap="round" stroke-linejoin="round"/><defs><linearGradient id="paint0_linear" x1="24" y1="1" x2="24" y2="43" gradientUnits="userSpaceOnUse"><stop stop-color="#fff" stop-opacity=".5"/><stop offset="1" stop-color="#fff" stop-opacity="0"/></linearGradient></defs></svg>