<svg width="48" height="50" fill="none" xmlns="http://www.w3.org/2000/svg"><path d="M15.752 23.71c7.166-1.686 14.12-10.327 14.12-20.864 0-2.53 5.059-2.95 6.534 1.897 1.475 5.479-.843 10.115-2.74 14.752h9.273" stroke="#FFD800" stroke-width="2" stroke-miterlimit="10" stroke-linecap="round" stroke-linejoin="round"/><path d="M15.752 23.71c7.166-1.686 14.12-10.327 14.12-20.864 0-2.53 5.059-2.95 6.534 1.897 1.475 5.479-.843 10.115-2.74 14.752h9.273" stroke="url(#paint0_linear)" stroke-width="2" stroke-miterlimit="10" stroke-linecap="round" stroke-linejoin="round"/><path d="M42.728 19.495a3.778 3.778 0 013.794 3.794 3.778 3.778 0 01-3.794 3.793h-.843" stroke="#FFD800" stroke-width="2" stroke-miterlimit="10" stroke-linecap="round" stroke-linejoin="round"/><path d="M42.728 19.495a3.778 3.778 0 013.794 3.794 3.778 3.778 0 01-3.794 3.793h-.843" stroke="url(#paint1_linear)" stroke-width="2" stroke-miterlimit="10" stroke-linecap="round" stroke-linejoin="round"/><path d="M41.886 26.871a3.778 3.778 0 013.793 3.794 3.778 3.778 0 01-3.794 3.793h-.843" stroke="#FFD800" stroke-width="2" stroke-miterlimit="10" stroke-linecap="round" stroke-linejoin="round"/><path d="M41.886 26.871a3.778 3.778 0 013.793 3.794 3.778 3.778 0 01-3.794 3.793h-.843" stroke="url(#paint2_linear)" stroke-width="2" stroke-miterlimit="10" stroke-linecap="round" stroke-linejoin="round"/><path d="M39.989 34.247a3.778 3.778 0 013.793 3.794 3.778 3.778 0 01-3.793 3.793h-.843" stroke="#FFD800" stroke-width="2" stroke-miterlimit="10" stroke-linecap="round" stroke-linejoin="round"/><path d="M39.989 34.247a3.778 3.778 0 013.793 3.794 3.778 3.778 0 01-3.793 3.793h-.843" stroke="url(#paint3_linear)" stroke-width="2" stroke-miterlimit="10" stroke-linecap="round" stroke-linejoin="round"/><path d="M41.886 26.871a3.778 3.778 0 013.793 3.794 3.778 3.778 0 01-3.794 3.793H39.99" stroke="#FFD800" stroke-width="2" stroke-miterlimit="10" stroke-linecap="round" stroke-linejoin="round"/><path d="M41.886 26.871a3.778 3.778 0 013.793 3.794 3.778 3.778 0 01-3.794 3.793H39.99" stroke="url(#paint4_linear)" stroke-width="2" stroke-miterlimit="10" stroke-linecap="round" stroke-linejoin="round"/><path d="M39.146 48.157H26.29c-3.793 0-10.537-3.372-10.537-3.372" stroke="#FFD800" stroke-width="2" stroke-miterlimit="10" stroke-linecap="round" stroke-linejoin="round"/><path d="M39.146 48.157H26.29c-3.793 0-10.537-3.372-10.537-3.372" stroke="url(#paint5_linear)" stroke-width="2" stroke-miterlimit="10" stroke-linecap="round" stroke-linejoin="round"/><path d="M38.303 41.624h.421c1.686 0 3.162 1.475 3.162 3.161s-1.476 3.162-3.162 3.162H37.25" stroke="#FFD800" stroke-width="2" stroke-miterlimit="10" stroke-linecap="round" stroke-linejoin="round"/><path d="M38.303 41.624h.421c1.686 0 3.162 1.475 3.162 3.161s-1.476 3.162-3.162 3.162H37.25" stroke="url(#paint6_linear)" stroke-width="2" stroke-miterlimit="10" stroke-linecap="round" stroke-linejoin="round"/><path d="M11.327 45.206a.843.843 0 100-1.685.843.843 0 000 1.685z" stroke="#FFD800" stroke-width="2" stroke-miterlimit="10" stroke-linecap="round" stroke-linejoin="round"/><path d="M11.327 45.206a.843.843 0 100-1.685.843.843 0 000 1.685z" stroke="url(#paint7_linear)" stroke-width="2" stroke-miterlimit="10" stroke-linecap="round" stroke-linejoin="round"/><path d="M13.645 49H3.108C1.843 49 1 48.157 1 46.893v-25.29c0-1.265.843-2.108 2.107-2.108h10.538c1.264 0 2.107.843 2.107 2.108v25.29c0 1.053-.843 2.107-2.107 2.107z" stroke="#FFD800" stroke-width="2" stroke-miterlimit="10" stroke-linecap="round" stroke-linejoin="round"/><path d="M13.645 49H3.108C1.843 49 1 48.157 1 46.893v-25.29c0-1.265.843-2.108 2.107-2.108h10.538c1.264 0 2.107.843 2.107 2.108v25.29c0 1.053-.843 2.107-2.107 2.107z" stroke="url(#paint8_linear)" stroke-width="2" stroke-miterlimit="10" stroke-linecap="round" stroke-linejoin="round"/><defs><linearGradient id="paint0_linear" x1="29.346" y1="1" x2="29.346" y2="23.71" gradientUnits="userSpaceOnUse"><stop stop-color="#fff" stop-opacity=".5"/><stop offset="1" stop-color="#fff" stop-opacity="0"/></linearGradient><linearGradient id="paint1_linear" x1="44.204" y1="19.495" x2="44.204" y2="27.082" gradientUnits="userSpaceOnUse"><stop stop-color="#fff" stop-opacity=".5"/><stop offset="1" stop-color="#fff" stop-opacity="0"/></linearGradient><linearGradient id="paint2_linear" x1="43.361" y1="26.871" x2="43.361" y2="34.458" gradientUnits="userSpaceOnUse"><stop stop-color="#fff" stop-opacity=".5"/><stop offset="1" stop-color="#fff" stop-opacity="0"/></linearGradient><linearGradient id="paint3_linear" x1="41.464" y1="34.247" x2="41.464" y2="41.834" gradientUnits="userSpaceOnUse"><stop stop-color="#fff" stop-opacity=".5"/><stop offset="1" stop-color="#fff" stop-opacity="0"/></linearGradient><linearGradient id="paint4_linear" x1="42.834" y1="26.871" x2="42.834" y2="34.458" gradientUnits="userSpaceOnUse"><stop stop-color="#fff" stop-opacity=".5"/><stop offset="1" stop-color="#fff" stop-opacity="0"/></linearGradient><linearGradient id="paint5_linear" x1="27.449" y1="44.785" x2="27.449" y2="48.157" gradientUnits="userSpaceOnUse"><stop stop-color="#fff" stop-opacity=".5"/><stop offset="1" stop-color="#fff" stop-opacity="0"/></linearGradient><linearGradient id="paint6_linear" x1="39.567" y1="41.624" x2="39.567" y2="47.947" gradientUnits="userSpaceOnUse"><stop stop-color="#fff" stop-opacity=".5"/><stop offset="1" stop-color="#fff" stop-opacity="0"/></linearGradient><linearGradient id="paint7_linear" x1="11.327" y1="43.52" x2="11.327" y2="45.206" gradientUnits="userSpaceOnUse"><stop stop-color="#fff" stop-opacity=".5"/><stop offset="1" stop-color="#fff" stop-opacity="0"/></linearGradient><linearGradient id="paint8_linear" x1="8.376" y1="19.495" x2="8.376" y2="49" gradientUnits="userSpaceOnUse"><stop stop-color="#fff" stop-opacity=".5"/><stop offset="1" stop-color="#fff" stop-opacity="0"/></linearGradient></defs></svg>