<svg width="52" height="42" fill="none" xmlns="http://www.w3.org/2000/svg"><path d="M39.669 11.306c0 3.575-2.734 6.52-6.309 6.52s-6.308-2.945-6.308-6.52V7.521c0-3.575 2.733-6.52 6.308-6.52 3.575.001 6.309 2.945 6.309 6.52v3.785z" stroke="#FFD800" stroke-width="2" stroke-miterlimit="10" stroke-linecap="round" stroke-linejoin="round"/><path d="M39.669 11.306c0 3.575-2.734 6.52-6.309 6.52s-6.308-2.945-6.308-6.52V7.521c0-3.575 2.733-6.52 6.308-6.52 3.575.001 6.309 2.945 6.309 6.52v3.785z" stroke="url(#paint0_linear)" stroke-width="2" stroke-miterlimit="10" stroke-linecap="round" stroke-linejoin="round"/><path d="M16.537 12.568a5.257 5.257 0 100-10.514 5.257 5.257 0 000 10.514z" stroke="#FFD800" stroke-width="2" stroke-miterlimit="10" stroke-linecap="round" stroke-linejoin="round"/><path d="M16.537 12.568a5.257 5.257 0 100-10.514 5.257 5.257 0 000 10.514z" stroke="url(#paint1_linear)" stroke-width="2" stroke-miterlimit="10" stroke-linecap="round" stroke-linejoin="round"/><path d="M21.794 24.344a12.748 12.748 0 00-7.36-2.313c-6.098 0-11.356 4.416-12.407 10.305-.21 1.261.841 2.313 2.103 2.313h10.304" stroke="#FFD800" stroke-width="2" stroke-miterlimit="10" stroke-linecap="round" stroke-linejoin="round"/><path d="M21.794 24.344a12.748 12.748 0 00-7.36-2.313c-6.098 0-11.356 4.416-12.407 10.305-.21 1.261.841 2.313 2.103 2.313h10.304" stroke="url(#paint2_linear)" stroke-width="2" stroke-miterlimit="10" stroke-linecap="round" stroke-linejoin="round"/><path d="M33.36 24.134c-8.411 0-15.561 6.308-16.613 14.51-.21 1.262.841 2.313 2.103 2.313h29.02c1.262 0 2.313-1.051 2.103-2.313-1.051-8.201-8.201-14.51-16.613-14.51z" stroke="#FFD800" stroke-width="2" stroke-miterlimit="10" stroke-linecap="round" stroke-linejoin="round"/><path d="M33.36 24.134c-8.411 0-15.561 6.308-16.613 14.51-.21 1.262.841 2.313 2.103 2.313h29.02c1.262 0 2.313-1.051 2.103-2.313-1.051-8.201-8.201-14.51-16.613-14.51z" stroke="url(#paint3_linear)" stroke-width="2" stroke-miterlimit="10" stroke-linecap="round" stroke-linejoin="round"/><defs><linearGradient id="paint0_linear" x1="33.36" y1="1.002" x2="33.36" y2="17.825" gradientUnits="userSpaceOnUse"><stop stop-color="#fff" stop-opacity=".5"/><stop offset="1" stop-color="#fff" stop-opacity="0"/></linearGradient><linearGradient id="paint1_linear" x1="16.537" y1="2.054" x2="16.537" y2="12.568" gradientUnits="userSpaceOnUse"><stop stop-color="#fff" stop-opacity=".5"/><stop offset="1" stop-color="#fff" stop-opacity="0"/></linearGradient><linearGradient id="paint2_linear" x1="11.897" y1="22.031" x2="11.897" y2="34.649" gradientUnits="userSpaceOnUse"><stop stop-color="#fff" stop-opacity=".5"/><stop offset="1" stop-color="#fff" stop-opacity="0"/></linearGradient><linearGradient id="paint3_linear" x1="33.36" y1="24.134" x2="33.36" y2="40.957" gradientUnits="userSpaceOnUse"><stop stop-color="#fff" stop-opacity=".5"/><stop offset="1" stop-color="#fff" stop-opacity="0"/></linearGradient></defs></svg>